<?xml version="1.0" encoding="UTF-8" standalone="no"?>
<!-- Created with Inkscape (http://www.inkscape.org/) -->

<svg
   xmlns:dc="http://purl.org/dc/elements/1.1/"
   xmlns:cc="http://creativecommons.org/ns#"
   xmlns:rdf="http://www.w3.org/1999/02/22-rdf-syntax-ns#"
   xmlns:svg="http://www.w3.org/2000/svg"
   xmlns="http://www.w3.org/2000/svg"
   xmlns:sodipodi="http://sodipodi.sourceforge.net/DTD/sodipodi-0.dtd"
   xmlns:inkscape="http://www.inkscape.org/namespaces/inkscape"
   width="240"
   height="64"
   id="svg2985"
   version="1.1"
   inkscape:version="0.92.4 (5da689c313, 2019-01-14)"
   sodipodi:docname="logo.svg"
   inkscape:export-filename="C:\Users\Daniel\Downloads\logopng.png"
   inkscape:export-xdpi="154.6875"
   inkscape:export-ydpi="154.6875"
   viewBox="0 0 240 64">
  <defs
     id="defs2987" />
  <sodipodi:namedview
     id="base"
     pagecolor="#ffffff"
     bordercolor="#666666"
     borderopacity="1.0"
     inkscape:pageopacity="0.0"
     inkscape:pageshadow="2"
     inkscape:zoom="2.49"
     inkscape:cx="148.73247"
     inkscape:cy="11.154962"
     inkscape:current-layer="layer1"
     showgrid="true"
     inkscape:document-units="px"
     inkscape:grid-bbox="true"
     inkscape:snap-bbox="true"
     inkscape:bbox-paths="true"
     inkscape:bbox-nodes="true"
     inkscape:snap-bbox-edge-midpoints="true"
     inkscape:snap-bbox-midpoints="true"
     inkscape:object-paths="true"
     inkscape:object-nodes="true"
     inkscape:snap-intersection-paths="true"
     inkscape:snap-smooth-nodes="true"
     inkscape:snap-midpoints="true"
     inkscape:snap-center="true"
     inkscape:snap-object-midpoints="true"
     inkscape:window-width="1366"
     inkscape:window-height="705"
     inkscape:window-x="-8"
     inkscape:window-y="-8"
     inkscape:window-maximized="1"
     inkscape:snap-global="true" />
  <metadata
     id="metadata2990">
    <rdf:RDF>
      <cc:Work
         rdf:about="">
        <dc:format>image/svg+xml</dc:format>
        <dc:type
           rdf:resource="http://purl.org/dc/dcmitype/StillImage" />
        <dc:title></dc:title>
      </cc:Work>
    </rdf:RDF>
  </metadata>
  <g
     id="layer1"
     inkscape:label="Layer 1"
     inkscape:groupmode="layer">
    <path
       style="fill:none;stroke:none"
       d="M 0,0 H 236.09605 V 64 H 0 Z"
       id="rect3778"
       inkscape:connector-curvature="0"
       sodipodi:nodetypes="ccccc" />
    <g
       id="g2995"
       inkscape:export-filename="/home/user/Documents/website/logo2x.png"
       inkscape:export-xdpi="154.6875"
       inkscape:export-ydpi="154.6875"
       transform="matrix(1.0095018,0,0,1.0095018,-0.30405898,-0.30405887)">
      <path
         transform="matrix(11.849785,-6.8414759,4.1048857,7.1098702,-141.6761,-453.06363)"
         style="fill:#ffffff"
         d="m -4.633625,61.745384 a 2.0991254,3.4985423 0 0 1 -2.0991254,3.498543 2.0991254,3.4985423 0 0 1 -2.0991254,-3.498543 2.0991254,3.4985423 0 0 1 2.0991254,-3.498542 2.0991254,3.4985423 0 0 1 2.0991254,3.498542 z"
         id="path3038" />
      <path
         transform="matrix(0.98000485,-0.56580602,0.76260819,1.3208761,-13.500496,-10.292296)"
         style="fill:#000000"
         d="m 16.134891,38.929852 a 1.9927555,1.478496 0 0 1 -1.992755,1.478495 1.9927555,1.478496 0 0 1 -1.992756,-1.478495 1.9927555,1.478496 0 0 1 1.992756,-1.478496 1.9927555,1.478496 0 0 1 1.992755,1.478496 z"
         id="path2993" />
      <path
         id="path3004"
         d="m 36.965211,24.251054 -2.816072,3.57877 c 0.657208,0.517134 1.313001,1.146671 1.756681,1.915146 0.443679,0.768474 0.660975,1.651177 0.780224,2.478901 l 4.507342,-0.649405 C 41.001257,30.166972 40.565802,28.79619 39.81164,27.489944 39.057477,26.183697 38.088074,25.121191 36.965211,24.251054 Z"
         style="fill:#000000"
         inkscape:connector-curvature="0" />
      <path
         id="path3014"
         d="m 42.404828,17.041928 -2.816072,3.578769 c 1.591875,1.223919 3.062315,2.767181 4.128704,4.614221 1.066388,1.847038 1.667671,3.892108 1.931679,5.882671 l 4.507341,-0.649405 c -0.336471,-2.571017 -1.155959,-5.102841 -2.5332,-7.488294 -1.377241,-2.385452 -3.160122,-4.36106 -5.218452,-5.937962 z"
         style="fill:#000000"
         inkscape:connector-curvature="0" />
      <path
         transform="matrix(3.9507144,-2.2809459,1.4097023,2.4416757,-59.699972,-127.24372)"
         style="fill:#000000"
         d="m -2.0227272,68.375862 a 1.9772727,3.1992946 0 0 1 -1.7123685,-1.599648 1.9772727,3.1992946 0 0 1 0,-3.199294 1.9772727,3.1992946 0 0 1 1.7123685,-1.599647 l -1e-7,3.199294 z"
         id="path3036" />
      <path
         id="path3038-8"
         d="M 17.638883,7.1258129 C 3.9012503,15.057239 -0.80560983,32.62348 7.1258152,46.361111 15.057241,60.098742 32.623482,64.805603 46.361115,56.874177 60.098748,48.942752 64.805608,31.37651 56.874183,17.63888 48.942758,3.9012493 31.376516,-0.80561226 17.638883,7.1258129 Z m 1.689543,2.9263741 C 31.449867,3.0538711 46.949491,7.2069826 53.947808,19.328422 60.946126,31.449863 56.793012,46.949488 44.671573,53.947803 32.550132,60.94612 17.050507,56.793009 10.05219,44.671568 3.0538724,32.550127 7.2069849,17.050503 19.328426,10.052187 Z"
         style="fill:#000000"
         inkscape:connector-curvature="0" />
    </g>
    <g
       style="font-style:normal;font-weight:normal;font-size:47.16480255px;line-height:125%;font-family:Sans;letter-spacing:0px;word-spacing:0px;fill:#000000;fill-opacity:1;stroke:none"
       aria-label="Traccar"
       id="text3003">
      <g
         aria-label="vice"
         transform="matrix(0.95967341,0,0,1.0549609,0,-0.60654326)"
         style="font-style:normal;font-weight:normal;font-size:41.68084717px;line-height:1.25;font-family:sans-serif;letter-spacing:0px;word-spacing:0px;fill:#000000;fill-opacity:1;stroke:none;stroke-width:1.04202116"
         id="text3757">
        <path
           id="path3765"
           style="stroke-width:1.04202116"
           d="m 234.12091,35.375732 h -16.74967 q 0,2.096254 0.63091,3.663356 0.63091,1.54675 1.72991,2.543997 1.05831,0.976895 2.5033,1.465342 1.46534,0.488448 3.21561,0.488448 2.32013,0 4.6606,-0.915839 2.36083,-0.936191 3.35808,-1.831678 h 0.20352 v 4.172155 q -1.93344,0.814079 -3.94829,1.363583 -2.01484,0.549503 -4.23321,0.549503 -5.65785,0 -8.83275,-3.052797 -3.17491,-3.073148 -3.17491,-8.710645 0,-5.576442 3.03244,-8.85311 3.0528,-3.276668 8.01868,-3.276668 4.59955,0 7.08249,2.686461 2.50329,2.686461 2.50329,7.631991 z m -3.72441,-2.930684 q -0.0204,-3.012093 -1.5264,-4.660603 -1.48569,-1.64851 -4.53849,-1.64851 -3.07315,0 -4.90483,1.811326 -1.81132,1.811326 -2.05554,4.497787 z m -20.22986,12.475761 q -1.91309,0.915839 -3.64301,1.424639 -1.70956,0.508799 -3.643,0.508799 -2.46259,0 -4.51814,-0.712319 -2.05555,-0.732671 -3.52089,-2.198014 -1.48569,-1.465342 -2.29977,-3.704059 -0.81408,-2.238718 -0.81408,-5.230458 0,-5.576442 3.05279,-8.75135 3.07315,-3.174908 8.10009,-3.174908 1.95379,0 3.82617,0.549503 1.89274,0.549504 3.45984,1.343231 v 4.253563 h -0.20352 q -1.75027,-1.363583 -3.62265,-2.096254 -1.85203,-0.732671 -3.62266,-0.732671 -3.25631,0 -5.14905,2.198013 -1.87238,2.177662 -1.87238,6.410873 0,4.111099 1.83168,6.329464 1.85203,2.198014 5.18975,2.198014 1.16007,0 2.36083,-0.30528 1.20077,-0.305279 2.15731,-0.793727 0.83443,-0.427391 1.56711,-0.895487 0.73267,-0.488447 1.16006,-0.834431 h 0.20352 z M 185.98849,19.806471 h -4.31462 v -3.968636 h 4.31462 z m -0.24422,26.538977 h -3.82618 V 23.61229 h 3.82618 z M 176.8708,23.61229 167.67171,46.345448 h -3.84652 L 154.68715,23.61229 h 4.1518 l 7.04179,18.092907 6.98072,-18.092907 z m -31.37892,23.097642 -0.79191,-3.405464 h -0.19199 c -1.31185,1.498986 -2.62371,2.517715 -3.93557,3.056186 -1.29586,0.523917 -2.91968,0.785876 -4.87147,0.785876 -2.60772,0 -4.6555,-0.611237 -6.14334,-1.833712 -1.47185,-1.222474 -2.20778,-2.961588 -2.20778,-5.217345 0,-4.831684 4.24755,-7.363953 12.74264,-7.596805 l 4.46352,-0.130979 v -1.484433 c 0,-1.877371 -0.44795,-3.259932 -1.34385,-4.147681 -0.87991,-0.902302 -2.29575,-1.353453 -4.24755,-1.353453 -2.19176,0 -4.6715,0.611237 -7.4392,1.833711 l -1.22386,-2.772397 c 1.29585,-0.640343 2.7117,-1.142431 4.24753,-1.506263 1.55183,-0.363832 3.10368,-0.545748 4.65551,-0.545748 3.13566,0 5.45541,0.633067 6.95925,1.899202 1.51984,1.266134 2.27975,3.296314 2.27975,6.090541 v 16.328764 z m -8.99903,-2.554098 c 2.47973,0 4.42353,-0.618514 5.83137,-1.855542 1.42385,-1.237027 2.13577,-2.968865 2.13577,-5.195516 v -2.161159 l -3.98358,0.152809 c -3.16765,0.101873 -5.4554,0.553024 -6.86326,1.353454 -1.39185,0.785877 -2.08777,2.015627 -2.08777,3.689252 0,1.309794 0.43195,2.306693 1.29586,2.990697 0.87991,0.684004 2.10378,1.026005 3.67161,1.026005 z M 121.25448,22.347766 c 1.16788,0 2.21576,0.08732 3.14366,0.261958 l -0.55193,3.361805 c -1.08789,-0.218299 -2.04778,-0.327448 -2.87969,-0.327448 -2.12778,0 -3.95158,0.785876 -5.47142,2.357628 -1.50383,1.571753 -2.25575,3.529168 -2.25575,5.872243 v 12.83598 h -3.98358 V 22.784364 h 3.28765 l 0.45595,4.431469 h 0.19198 c 0.9759,-1.557199 2.15176,-2.757844 3.52762,-3.601933 1.37585,-0.844089 2.88769,-1.266134 4.53551,-1.266134 z M 93.489466,46.709932 H 89.409905 V 18.090936 H 78.299098 v -3.296314 h 26.301172 v 3.296314 H 93.489466 Z" />
      </g>
    </g>
  </g>
</svg>
